<svg xmlns="http://www.w3.org/2000/svg" width="147.785" height="167.485" viewBox="0 0 147.785 167.485">
  <g id="Group_666" data-name="Group 666" transform="translate(-380.883 -795.933)">
    <path id="Path_278" data-name="Path 278" d="M-3705.659,1822.012s-13.073-32.845-28.437-36.3-33.021,11.406-33.021,22.478,42.731,24.555,42.731,24.555-28.793.174-35.925,12.3,4.439,7.3,9.432,7.267c14.049-.083,40.088-8.981,40.088-8.981s-24.444,26.661-24.444,40.833,17.05,17.18,24.444,15.857-2.352-11.124,5.132-21.15,24.8-18.954,24.8-18.954,1.415,38.538,9.915,49.966,19.52,2.177,24.086-4.253-5.823-21.465-5.823-21.465,13.063-9.8,13.063-13.062-13.062,0-13.062,0v-27.771s28-5.255,32.307-10.584-5.57-8.05-15.062-10.733-22.907,0-22.907,0,11.291-14.471,5.662-17.927-17.938-9.935-22.074-6.479-6.1,24.406-6.1,24.406-3.7-50.085-11.185-58.474-10.613,4.93-11.825,19.378S-3705.659,1822.012-3705.659,1822.012Z" transform="translate(4148 -965)" fill="#fff"/>
    <path id="Path_279" data-name="Path 279" d="M-3693.745,1895.978c-3.514,0-8.467,3.687-9.319,11.465s.766,16.1,5.909,19.646,11-.571,14.663-5.483,1.629-10.622,0-14.163-6.015,2.866-8.828,0S-3690.231,1895.978-3693.745,1895.978Z" transform="translate(4148 -965)" fill="#fff"/>
    <path id="Path_280" data-name="Path 280" d="M-3655.472,1776.264c-3.923,0-11.609,3.277-12.592,7.663s6.594,3.973,10.518,6.817,7.2,5.5,10.2,1.839,2.02-7.814,0-11.379S-3651.549,1776.264-3655.472,1776.264Z" transform="translate(4148 -965)" fill="#fff"/>
  </g>
</svg>
