<svg xmlns="http://www.w3.org/2000/svg" width="106" height="106" viewBox="0 0 106 106">
  <g id="Group_423" data-name="Group 423" transform="translate(-890 -883)">
    <circle id="Ellipse_3" data-name="Ellipse 3" cx="53" cy="53" r="53" transform="translate(890 883)" fill="#56c78f"/>
    <path id="Icon_material-bug-report" data-name="Icon material-bug-report" d="M55.966,16.287c-2.388-1.62-9.553,0-9.553,0a19.79,19.79,0,0,0-6.187-6.35s5.355-2.819,5.542-5.281S44.016-.527,40.973.088,33.6,7.118,33.6,7.118a21.59,21.59,0,0,0-4.828-.551,21.065,21.065,0,0,0-4.794.551S19.614.7,16.563.088s-4.972,2.106-4.794,4.568,5.508,5.281,5.508,5.281a20.039,20.039,0,0,0-6.154,6.35s-7.165-1.62-9.553,0-1.776,4.86,0,6.479,7.105,0,7.105,0a20.521,20.521,0,0,0-.306,3.24v3.24s-5.1-1.62-6.8,0a4.754,4.754,0,0,0,0,6.479c1.7,1.62,6.8,0,6.8,0v3.24a20.521,20.521,0,0,0,.306,3.24s-5.329-1.62-7.105,0-2.388,4.86,0,6.479,9.553,0,9.553,0A20.585,20.585,0,0,0,28.768,58.4a20.585,20.585,0,0,0,17.645-9.719s7.165,1.62,9.553,0,1.776-4.86,0-6.479-7.105,0-7.105,0a20.52,20.52,0,0,0,.306-3.24v-3.24s5.1,1.62,6.8,0a4.754,4.754,0,0,0,0-6.479c-1.7-1.62-6.8,0-6.8,0v-3.24a20.52,20.52,0,0,0-.306-3.24s5.329,1.62,7.105,0S58.354,17.907,55.966,16.287Z" transform="translate(915.024 905.799)" fill="#fafafa"/>
  </g>
</svg>
