<svg xmlns="http://www.w3.org/2000/svg" width="46.142" height="46.132" viewBox="0 0 46.142 46.132">
  <path id="Icon_awesome-instagram" data-name="Icon awesome-instagram" d="M23.071,13.476A11.828,11.828,0,1,0,34.9,25.3,11.809,11.809,0,0,0,23.071,13.476Zm0,19.517a7.69,7.69,0,1,1,7.69-7.69,7.7,7.7,0,0,1-7.69,7.69Zm15.07-20a2.759,2.759,0,1,1-2.759-2.759A2.752,2.752,0,0,1,38.141,12.992Zm7.834,2.8c-.175-3.7-1.019-6.969-3.726-9.666S36.278,2.585,32.583,2.4c-3.809-.216-15.225-.216-19.033,0-3.685.175-6.959,1.019-9.666,3.716S.342,12.086.157,15.782c-.216,3.809-.216,15.225,0,19.033.175,3.7,1.019,6.969,3.726,9.666s5.97,3.541,9.666,3.726c3.809.216,15.225.216,19.033,0,3.7-.175,6.969-1.019,9.666-3.726s3.541-5.97,3.726-9.666c.216-3.809.216-15.214,0-19.023ZM41.055,38.9a7.785,7.785,0,0,1-4.385,4.385c-3.037,1.2-10.242.926-13.6.926s-10.572.268-13.6-.926A7.785,7.785,0,0,1,5.088,38.9c-1.2-3.037-.926-10.242-.926-13.6s-.268-10.572.926-13.6A7.785,7.785,0,0,1,9.473,7.32c3.037-1.2,10.242-.926,13.6-.926s10.572-.268,13.6.926a7.785,7.785,0,0,1,4.385,4.385c1.2,3.037.926,10.242.926,13.6S42.259,35.876,41.055,38.9Z" transform="translate(0.005 -2.238)" fill="#fafafa"/>
</svg>
