<svg xmlns="http://www.w3.org/2000/svg" width="22.415" height="22.197" viewBox="0 0 22.415 22.197">
  <g id="Group_420" data-name="Group 420" transform="translate(-47.999 -827.5)">
    <path id="Union_3" data-name="Union 3" d="M4193.225-66.077l-5.244-4.961a8.9,8.9,0,0,1-5.539,1.926,8.886,8.886,0,0,1-6.324-2.62,8.886,8.886,0,0,1-2.62-6.324A8.954,8.954,0,0,1,4182.442-87a8.885,8.885,0,0,1,6.326,2.62,8.882,8.882,0,0,1,2.62,6.324c0,.016,0,.032,0,.047a8.9,8.9,0,0,1-1.983,5.563l5.2,4.916a1,1,0,0,1,.039,1.414,1,1,0,0,1-.727.313A1,1,0,0,1,4193.225-66.077ZM4175.5-78.056a6.9,6.9,0,0,0,2.034,4.91,6.9,6.9,0,0,0,4.909,2.034,6.952,6.952,0,0,0,6.944-6.944c0-.014,0-.027,0-.041a6.9,6.9,0,0,0-2.033-4.868A6.9,6.9,0,0,0,4182.443-85,6.951,6.951,0,0,0,4175.5-78.056Z" transform="translate(-4125 915)" fill="#fafafa" stroke="#000" stroke-linecap="round" stroke-width="1"/>
    <path id="Line_5" data-name="Line 5" d="M7.986,1H0A1,1,0,0,1-1,0,1,1,0,0,1,0-1H7.986a1,1,0,0,1,1,1A1,1,0,0,1,7.986,1Z" transform="translate(53.303 837.081)" fill="#fafafa" stroke="#000" stroke-linecap="round" stroke-width="1"/>
  </g>
</svg>
