<svg xmlns="http://www.w3.org/2000/svg" width="50" height="50" viewBox="0 0 50 50">
  <path id="Icon_awesome-pinterest" data-name="Icon awesome-pinterest" d="M50,25.563A25,25,0,0,1,17.6,49.444a28.1,28.1,0,0,0,3.1-6.552c.3-1.169,1.552-5.948,1.552-5.948.817,1.552,3.2,2.873,5.726,2.873,7.54,0,12.974-6.935,12.974-15.554,0-8.256-6.744-14.435-15.413-14.435-10.786,0-16.522,7.238-16.522,15.131,0,3.669,1.956,8.236,5.071,9.687.474.222.726.121.837-.333.081-.343.5-2.046.7-2.833a.748.748,0,0,0-.171-.716,9.845,9.845,0,0,1-1.845-5.706A10.818,10.818,0,0,1,24.9,14.212c6.139,0,10.444,4.183,10.444,10.171,0,6.764-3.417,11.452-7.863,11.452a3.626,3.626,0,0,1-3.7-4.516c.706-2.974,2.067-6.179,2.067-8.327,0-1.915-1.028-3.518-3.165-3.518-2.51,0-4.526,2.591-4.526,6.069a9.008,9.008,0,0,0,.746,3.71s-2.47,10.464-2.923,12.419a24.2,24.2,0,0,0-.091,7.177A25,25,0,1,1,50,25.563Z" transform="translate(0 -0.563)" fill="#fafafa"/>
</svg>
