<svg xmlns="http://www.w3.org/2000/svg" width="51.058" height="51.058" viewBox="0 0 51.058 51.058">
  <path id="Icon_awesome-snapchat" data-name="Icon awesome-snapchat" d="M25.529.563A25.529,25.529,0,1,0,51.058,26.091,25.524,25.524,0,0,0,25.529.563ZM42.977,35.449c-.36.834-1.863,1.441-4.612,1.873a12.65,12.65,0,0,0-.443,1.637.793.793,0,0,1-.834.607h-.021c-.638,0-1.318-.3-2.656-.3a5.411,5.411,0,0,0-3.85,1.41A7.68,7.68,0,0,1,25.5,42.551c-2.162.165-3.973-1.153-4.993-1.873a5.427,5.427,0,0,0-3.85-1.41A26.24,26.24,0,0,0,14,39.587a.817.817,0,0,1-.854-.618,12.923,12.923,0,0,0-.443-1.647c-1.421-.216-4.612-.772-4.684-2.2a.728.728,0,0,1,.607-.762c4.766-.782,6.907-5.672,7-5.878,0-.01.01-.021.021-.031a1.54,1.54,0,0,0,.165-1.287c-.35-.813-1.843-1.1-2.471-1.359-1.626-.638-1.853-1.379-1.75-1.884a1.761,1.761,0,0,1,2.254-1.06,3.879,3.879,0,0,0,1.616.432,1.443,1.443,0,0,0,.679-.144c-.144-2.46-.484-5.97.391-7.937a9.348,9.348,0,0,1,8.657-5.59l.69-.01a9.265,9.265,0,0,1,8.678,5.59c.875,1.966.535,5.466.391,7.937a1.294,1.294,0,0,0,.587.144,4.061,4.061,0,0,0,1.513-.432,1.881,1.881,0,0,1,1.4,0,1.432,1.432,0,0,1,1.071,1.225c.01.669-.587,1.246-1.771,1.709-.144.062-.319.113-.5.175-.669.216-1.688.535-1.956,1.184a1.579,1.579,0,0,0,.165,1.287c.01.01.01.021.021.031.093.206,2.234,5.1,7,5.878a.79.79,0,0,1,.5,1.112Z" transform="translate(0 -0.563)" fill="#fafafa"/>
</svg>
