<svg xmlns="http://www.w3.org/2000/svg" width="22.106" height="27.09" viewBox="0 0 22.106 27.09">
  <path id="Subtraction_1" data-name="Subtraction 1" d="M4155.616-940.785h-2.74V-953.98L4148-956.257V-965h12.161v8.743l-4.544,2.277v13.194ZM4154.47-957.1v1h1v-1Zm-2,0v1h1v-1Zm4-2v1h1v-1Zm-2,0v1h1v-1Zm-2,0v1h1v-1Zm-2,0v1h1v-1Zm6-2v1h1v-1Zm-2,0v1h1v-1Zm-2,0v1h1v-1Zm-2,0v1h1v-1Zm6-2v1h1v-1Zm-2,0v1h1v-1Zm-2,0v1h1v-1Zm-2,0v1h1v-1Z" transform="matrix(0.883, -0.469, 0.469, 0.883, -3209.426, 2805.122)" fill="#fff"/>
</svg>
