<svg xmlns="http://www.w3.org/2000/svg" width="52.705" height="42.806" viewBox="0 0 52.705 42.806">
  <path id="Icon_awesome-twitter" data-name="Icon awesome-twitter" d="M47.287,14.049c.033.468.033.936.033,1.4,0,14.28-10.869,30.733-30.733,30.733A30.525,30.525,0,0,1,0,41.338a22.346,22.346,0,0,0,2.608.134,21.633,21.633,0,0,0,13.41-4.615,10.821,10.821,0,0,1-10.1-7.491,13.622,13.622,0,0,0,2.04.167,11.424,11.424,0,0,0,2.843-.368,10.8,10.8,0,0,1-8.662-10.6V18.43A10.879,10.879,0,0,0,7.023,19.8,10.818,10.818,0,0,1,3.679,5.354a30.7,30.7,0,0,0,22.272,11.3,12.194,12.194,0,0,1-.268-2.475A10.812,10.812,0,0,1,44.378,6.792a21.267,21.267,0,0,0,6.856-2.608,10.773,10.773,0,0,1-4.749,5.953A21.654,21.654,0,0,0,52.7,8.464a23.22,23.22,0,0,1-5.417,5.585Z" transform="translate(0 -3.381)" fill="#fafafa"/>
</svg>
